HIERARCHY
ROOT hip
{
	OFFSET 0.000000 0.000000 0.000000 
	CHANNELS 6 Xposition Yposition Zposition Xrotation Zrotation Yrotation
	JOINT abdomen
	{
		OFFSET 0.000000 3.402643 0.000000 
		CHANNELS 3 Xrotation Zrotation Yrotation
		JOINT chest
		{
			OFFSET 0.000000 8.438565 -0.680529 
			CHANNELS 3 Xrotation Zrotation Yrotation
			JOINT neck
			{
				OFFSET 0.000000 10.207942 -0.272212 
				CHANNELS 3 Xrotation Zrotation Yrotation
				JOINT head
				{
					OFFSET 0.000000 3.130431 0.000000 
					CHANNELS 3 Xrotation Zrotation Yrotation
					End Site
					{
						OFFSET 0.000000 3.130435 0.000000 
					}
				}
			}
			JOINT lCollar
			{
				OFFSET 3.470700 6.669187 -0.816635 
				CHANNELS 3 Yrotation Zrotation Xrotation
				JOINT lShldr
				{
					OFFSET 3.198488 0.000000 0.000000 
					CHANNELS 3 Zrotation Yrotation Xrotation
					JOINT lForeArm
					{
						OFFSET 10.139888 0.000000 0.000000 
						CHANNELS 3 Yrotation Zrotation Xrotation
						JOINT lHand
						{
							OFFSET 8.370511 0.000000 0.000000 
							CHANNELS 3 Zrotation Yrotation Xrotation
							End Site
							{
								OFFSET 4.083176 0.000000 0.000000 
							}
						}
					}
				}
			}
			JOINT rCollar
			{
				OFFSET -3.470700 6.669187 -0.816635 
				CHANNELS 3 Yrotation Zrotation Xrotation
				JOINT rShldr
				{
					OFFSET -3.198488 0.000000 0.000000 
					CHANNELS 3 Zrotation Yrotation Xrotation
					JOINT rForeArm
					{
						OFFSET -10.139888 0.000000 0.000000 
						CHANNELS 3 Yrotation Zrotation Xrotation
						JOINT rHand
						{
							OFFSET -8.370511 0.000000 0.000000 
							CHANNELS 3 Zrotation Yrotation Xrotation
							End Site
							{
								OFFSET -4.083176 0.000000 0.000000 
							}
						}
					}
				}
			}
		}
	}
	JOINT lThigh
	{
		OFFSET 5.308129 -1.633274 1.361059 
		CHANNELS 3 Xrotation Zrotation Yrotation
		JOINT lShin
		{
			OFFSET -2.041588 -20.007561 0.000000 
			CHANNELS 3 Xrotation Zrotation Yrotation
			JOINT lFoot
			{
				OFFSET 0.000000 -19.190928 -1.224953 
				CHANNELS 3 Xrotation Yrotation Zrotation
				End Site
				{
					OFFSET 0.000000 -2.449906 4.627600 
				}
			}
		}
	}
	JOINT rThigh
	{
		OFFSET -5.308129 -1.633274 1.361059 
		CHANNELS 3 Xrotation Zrotation Yrotation
		JOINT rShin
		{
			OFFSET 2.041588 -20.007561 0.000000 
			CHANNELS 3 Xrotation Zrotation Yrotation
			JOINT rFoot
			{
				OFFSET 0.000000 -19.190928 -1.224953 
				CHANNELS 3 Xrotation Yrotation Zrotation
				End Site
				{
					OFFSET 0.000000 -2.449906 4.627600 
				}
			}
		}
	}
}
MOTION
Frames: 19
Frame Time: 0.033333
-0.534355 54.638958 -0.049901 -22.174007 5.439339 -0.372200 0.000000 0.000000 0.000000 33.307087 -8.027022 2.889181 22.651148 5.839746 0.334283 -0.645228 -0.800560 -1.347798 -22.533373 16.417280 24.994097 -85.498764 26.441229 14.745031 -74.263039 -21.670694 -86.267616 -14.478893 -34.915192 22.122826 10.562301 -7.877592 24.995743 46.538303 6.250152 68.423828 42.669205 -36.568722 -22.156063 -12.388755 23.723791 -74.211014 -4.725459 -1.162189 16.675570 22.762068 -0.239336 -0.753328 -1.734414 -12.517748 -14.175242 -0.439445 -6.344944 -0.730848 65.353310 0.879175 5.226968 1.541277 -14.149165 16.777132 
-0.212713 54.231632 -0.226904 -19.967102 5.448711 -0.784211 0.000000 0.000000 0.000000 31.169163 -8.660683 2.933464 22.962307 8.622664 0.544216 -1.255262 -2.499204 -1.446918 -25.626806 16.970024 24.993780 -86.478500 21.413588 12.332205 -76.649788 -17.752623 -86.749489 -14.150311 -36.655422 23.783455 9.217244 -5.273309 24.999140 48.123848 5.273994 69.503746 35.682686 -24.545202 -25.311550 -8.001202 23.789246 -72.578926 -0.130668 -1.902398 16.510687 25.161827 -0.014048 -0.856077 3.830154 -12.640024 -12.819163 -13.586209 -6.070949 -0.232959 68.476440 1.406239 5.663134 -5.557069 -17.039139 10.938128 
-0.124521 53.176758 -0.430054 -18.839247 3.094418 -1.652728 0.000000 0.000000 0.000000 30.492477 -7.234222 3.297063 22.804853 9.940809 0.635846 -2.015321 -3.671785 -0.401445 -26.942562 16.873114 24.988947 -84.907890 16.188705 6.913479 -80.397758 -16.917944 -85.013023 -14.469563 -39.172428 25.094093 9.800564 -2.945040 24.991945 49.624584 4.521035 70.510498 30.048265 -12.733947 -31.508568 -3.952125 24.391790 -71.054237 4.439847 0.810202 17.367403 31.524450 0.571540 -1.075417 5.925066 -13.535975 -7.980899 -25.860142 -2.401996 1.378688 68.999062 2.431696 5.912730 -9.844460 -18.765285 9.725402 
-0.330407 51.652115 -0.533056 -20.915409 -1.551114 -2.618343 0.000000 0.000000 0.000000 33.677559 -4.131974 3.710536 21.360359 10.253209 0.676055 -2.799155 -3.845981 1.692853 -25.135113 17.026955 24.994240 -80.395462 10.514083 -1.061823 -86.876419 -19.105797 -82.766800 -13.486826 -40.318760 25.165138 12.095154 -1.208686 24.995186 50.750851 3.470403 71.375748 27.354948 -2.462212 -38.157215 -1.030320 24.618990 -69.996544 12.739487 6.590819 19.127832 37.188602 0.727268 -1.326493 0.666103 -16.487894 -2.452872 -34.178185 3.262040 3.449178 67.039207 4.844314 6.293741 -11.553771 -20.009533 12.810337 
-0.331497 49.543346 -0.599796 -18.553463 -0.449217 -0.156322 0.000000 0.000000 0.000000 31.832544 -5.838868 3.484554 18.399923 15.007305 1.063747 -3.230566 -3.954456 -1.018595 -28.706209 20.598171 24.995739 -76.086494 0.452246 -6.549065 -95.894081 -17.849598 -81.929016 -13.997958 -42.283558 23.575790 8.527199 0.946432 24.947830 52.237392 0.165480 72.975212 24.964432 1.730817 -37.125313 1.691460 26.059988 -69.864449 14.653147 4.844002 18.370035 36.287697 2.272513 -0.955989 -11.963728 -16.150558 1.358756 -47.136021 1.074236 3.530206 65.278709 5.440187 6.250674 -16.042088 -21.031088 8.736533 
-0.522011 49.088161 -0.650377 -18.994141 1.406250 0.000000 0.000000 0.000000 0.000000 32.563431 -8.612654 2.833988 17.116062 16.510296 1.192596 -3.897311 -2.781519 -1.994578 -28.505741 20.505783 24.989779 -68.552322 -9.090520 -13.266619 -97.996849 -11.341124 -64.905807 -5.831110 -40.857388 10.378692 8.167161 1.802335 24.819593 54.381428 -3.912890 75.255455 26.680363 1.643272 -41.582752 2.056231 27.437410 -69.629349 20.158123 3.507279 17.439795 34.793617 0.489746 -1.254895 -14.981911 -16.725067 0.900003 -51.817772 1.375402 3.912080 59.877941 2.553666 5.119260 -14.813122 -19.477938 16.686409 
-0.451093 49.941803 -0.435986 -20.660397 2.128864 0.361804 0.000000 0.000000 0.000000 33.031204 -8.525084 2.803573 18.871983 15.407529 1.085201 -3.585119 -2.096919 -2.902378 -29.182426 18.187824 24.996401 -63.275227 -14.331311 -17.183395 -99.743217 -5.695108 -57.745792 1.098877 -44.711487 4.603415 7.493174 0.917285 24.929522 54.547714 -7.377878 76.249634 31.244150 -0.167909 -38.761189 2.515507 24.265705 -68.926170 25.692831 2.902777 16.617039 34.092667 0.472666 -1.195161 -12.043776 -18.392124 -5.344802 -48.996094 0.204330 3.388043 53.837421 3.152066 4.696655 -15.553174 -18.117216 15.564703 
-0.334440 51.408817 -0.101550 -21.499617 2.870884 -0.693956 0.000000 0.000000 0.000000 31.660095 -8.905263 2.836950 21.986996 13.875096 0.956866 -2.938345 -2.146594 -2.375038 -29.065863 16.060118 24.990007 -62.241917 -13.892746 -18.132919 -101.738457 -4.797327 -53.425663 4.275070 -47.515511 1.337188 7.625477 0.038872 24.998898 53.516106 -10.989014 76.534218 37.453846 -2.490984 -42.561737 4.792793 25.241774 -68.044670 27.410103 1.045799 15.764838 36.341881 2.173779 -0.987337 -2.662329 -18.475498 -10.060804 -42.726063 -0.049491 2.948802 47.534237 4.276321 4.312116 -15.275376 -17.544886 13.703769 
-0.315220 52.953804 0.254261 -21.799599 4.060433 -1.830576 0.000000 0.000000 0.000000 29.670776 -10.350074 2.698969 24.790695 13.474947 0.904773 -2.444887 -2.635663 -1.622971 -29.269526 15.201677 24.991215 -65.075699 -9.531632 -16.399134 -101.511017 -6.120889 -45.129833 5.505402 -46.895855 -1.892357 7.468230 -0.295588 24.995598 52.110233 -14.088877 76.385666 43.294373 -6.229587 -48.156338 6.058853 28.465683 -67.469292 24.802515 -0.887513 15.421208 43.252934 4.251953 -0.886940 5.891458 -15.705880 -7.476614 -33.804066 -0.332278 2.382581 41.233627 4.053092 3.659698 -13.275686 -15.780698 10.812662 
-0.404542 54.203030 0.589647 -22.411732 6.317457 -0.971671 0.000000 0.000000 0.000000 28.780149 -12.910514 2.222233 26.549831 15.427201 1.054363 -2.334122 -3.053591 -2.562241 -31.938808 15.735663 24.995258 -70.322861 -4.064852 -12.242036 -96.149643 -6.230133 -32.451824 7.929525 -43.503670 -4.923904 5.260228 0.041777 24.965261 50.761299 -16.034828 75.927864 47.579250 -11.563990 -49.286709 1.726075 31.024250 -68.055000 19.337139 -2.047353 15.588452 53.334503 6.223166 -0.937603 7.053461 -11.344469 -0.193618 -22.058554 -2.958703 1.033230 34.502842 2.972311 2.773193 -9.784777 -12.274984 9.006676 
-0.420508 54.948208 0.922439 -22.872448 11.150317 2.667840 0.000000 0.000000 0.000000 29.150274 -17.437576 1.238533 27.544765 19.789463 1.402496 -2.222705 -3.689940 -6.106837 -38.273769 17.405392 24.991714 -77.143745 -0.145107 -5.362411 -84.694710 -7.902467 -33.079605 12.362908 -52.108524 -3.295445 0.192626 1.025330 24.836706 49.341866 -16.647001 75.000389 50.215969 -16.797155 -46.759308 -3.070802 35.669380 -69.090004 12.008453 -5.446585 15.103380 62.557716 9.884042 -0.492337 2.078555 -10.177662 -6.692127 -8.687960 -10.073749 -1.609809 26.799768 4.593267 2.321507 -4.539181 -12.720642 19.956026 
-0.815570 54.948029 1.030998 -20.780493 12.425753 3.722009 0.000000 0.000000 0.000000 26.787319 -19.489473 0.991299 29.007950 20.199327 1.427561 -3.045156 -3.143187 -6.592433 -37.091801 16.720659 24.998051 -80.840050 6.165767 -0.886943 -76.575401 -15.386326 -57.712585 -1.147017 -49.407768 15.247005 0.870851 2.070900 24.839884 48.925385 -15.900392 74.521721 48.301739 -28.762260 -40.197147 -0.349092 33.385201 -68.839752 0.959719 -4.111866 15.857554 68.514168 7.080613 -1.317217 -4.370802 -8.627670 -28.943388 0.282339 -11.217601 -2.255829 21.803223 4.669879 1.910270 0.957353 -13.007427 33.727215 
-1.028959 54.294376 0.974698 -18.941704 13.447004 4.459831 0.000000 0.000000 0.000000 25.711712 -19.948505 0.976166 28.914671 18.091656 1.253800 -4.485136 -1.432425 -7.658724 -34.615517 14.749635 24.994545 -82.399727 12.063374 1.982957 -65.052483 -18.575697 -62.417938 -4.884148 -40.904522 17.545633 2.792570 1.616176 24.832092 48.196873 -13.666788 73.463417 51.450932 -36.659092 -45.171452 1.499842 35.817139 -68.443352 -10.087802 -3.036715 15.921791 70.899956 3.222625 -2.230654 -10.189569 -3.619564 -29.957047 7.302610 -12.752083 -2.940797 22.020531 5.320774 2.129225 7.692669 -11.728365 42.936810 
-1.049884 52.833679 0.787956 -15.873935 14.395467 4.256113 0.000000 0.000000 0.000000 23.700212 -19.859577 1.152211 27.221191 14.431661 0.959304 -5.075611 0.058143 -7.109371 -31.351320 13.102716 24.993570 -83.469521 17.965866 5.274624 -54.217182 -20.157610 -58.141762 -5.524918 -35.053020 13.735847 6.131526 -0.668019 24.995670 46.348999 -10.424202 71.503136 56.252842 -45.821945 -43.547482 -0.319126 40.375675 -69.654961 -22.767826 -1.807953 15.147206 70.247429 -1.305505 -3.236897 -15.628214 0.465858 -27.200432 11.354294 -14.265208 -3.517362 24.673117 3.991880 2.067313 5.050972 -3.804976 49.288155 
-0.985437 51.001503 0.466006 -15.735699 13.924025 3.230555 0.000000 0.000000 0.000000 25.754673 -17.611708 1.473287 22.721861 10.067715 0.655092 -4.971003 1.038297 -6.456137 -27.992479 12.481983 24.996584 -84.295479 22.307583 8.882876 -46.692394 -22.568539 -55.214180 -5.071261 -31.520393 10.935422 8.386160 -4.549539 24.991875 42.530514 -4.817380 68.080673 64.328232 -58.633083 -33.276554 -8.443913 43.063568 -73.911873 -32.535641 0.526558 14.420910 66.562851 -3.804055 -3.699002 -19.543989 3.215842 -23.520365 16.611019 -14.160060 -3.524238 26.355188 2.917937 1.964572 -2.757712 1.628575 53.081776 
-0.912455 49.572605 0.059739 -20.367651 11.921523 2.616341 0.000000 0.000000 0.000000 34.038822 -13.148477 1.734007 16.251532 6.083849 0.383889 -4.824458 1.462862 -7.238694 -25.051878 13.357626 24.995777 -84.954231 23.701096 11.126141 -41.214848 -28.179001 -56.524063 -4.036895 -31.018822 10.662516 7.550194 -9.080478 24.995882 36.723549 3.245234 63.549500 81.422791 -74.801430 -13.128862 -19.108034 39.825806 -79.312653 -35.941364 2.107317 14.270148 59.423943 -2.905263 -3.266832 -20.966734 4.641127 -18.310980 25.031225 -12.242812 -2.928739 26.429747 4.479998 2.305702 -8.056403 -0.683941 52.132500 
-0.775442 49.551880 -0.224883 -26.485746 11.007216 4.129082 0.000000 0.000000 0.000000 43.055870 -9.771581 1.615105 12.285703 5.937368 0.383867 -5.512943 0.957732 -7.852582 -24.104832 16.854954 24.994190 -87.123192 21.228138 13.323149 -38.108608 -33.451187 -64.394699 2.426950 -28.785130 12.252434 5.050838 -11.612577 25.000000 30.971203 9.972327 59.568943 108.671936 -88.030441 18.805403 -23.344978 37.894207 -82.042183 -32.883671 0.359426 14.325637 48.522297 -2.149410 -2.628787 -22.130358 4.837035 -9.670374 33.859333 -11.471939 -2.690345 28.919044 6.896312 3.101516 -10.560667 -2.090065 53.426254 
-0.975798 50.442070 -0.153391 -22.963783 9.696550 3.735885 0.000000 0.000000 0.000000 37.745911 -10.325841 2.003711 15.212421 6.454912 0.413045 -3.988374 2.125352 -6.400758 -21.644686 16.247955 24.993446 -85.549774 27.798035 16.450569 -44.952015 -33.619373 -65.932739 -1.039688 -35.562592 12.871857 9.113439 -10.913864 24.999392 30.654230 9.971225 59.403397 88.606323 -88.562668 -5.849037 -14.762539 35.566219 -78.408401 -35.660030 2.391640 14.397518 41.231983 -5.907118 -3.096199 -18.167215 4.778121 -11.997015 31.731159 -9.568896 -2.074850 30.649616 3.914284 2.592345 -8.767840 -0.541437 52.262939 
-1.062741 51.738098 0.042388 -22.477695 9.251976 3.355356 0.000000 0.000000 0.000000 35.681908 -10.725333 2.106826 17.797766 6.406100 0.393634 -3.203476 3.381191 -5.781562 -19.810650 15.148591 24.995436 -83.043541 32.709255 16.941172 -54.346378 -33.847584 -71.915108 -9.447184 -39.451908 15.578676 12.199090 -9.797390 24.999916 33.641186 8.151835 61.195087 70.336876 -83.781982 -21.620123 -16.102728 32.972866 -78.254684 -32.689903 2.634887 14.958465 37.765938 -7.517761 -3.277195 -15.506028 2.472481 -16.599398 28.402252 -8.767899 -1.826434 37.447327 2.502283 2.926046 2.791959 2.274968 60.957935 
